<svg width="200" height="48" viewBox="0 0 200 48" fill="none" xmlns="http://www.w3.org/2000/svg">
<path d="M79.8036 20.9536C79.8036 18.9064 77.8185 16.7347 74.3769 16.7347C70.5105 16.7347 66.2697 19.5652 65.6133 25.2212C64.9508 30.9395 68.511 33.4663 72.0881 33.4663C75.664 33.4663 77.5465 32.0729 79.4583 30.2051C77.8076 28.1261 75.6786 29.0936 75.276 29.2962C74.8307 29.5194 74.2463 29.8281 73.0592 29.8281C71.6733 29.8281 70.2677 29.201 70.2677 26.6279C79.1276 25.7788 79.8036 23.002 79.8036 20.9536ZM75.4127 21.2964C75.3553 21.9272 75.0966 23.0191 70.6131 23.6194C71.5586 20.2618 73.3618 20.0129 74.195 20.0129C74.9759 20.0129 75.4736 20.618 75.4127 21.2964ZM60.4062 21.8417C60.4062 21.8417 58.5006 27.8175 58.3529 28.3189C58.3017 27.8175 56.9072 17.0837 56.9072 17.0837C53.6618 17.0837 51.9257 19.3895 51.0107 21.8393C51.0107 21.8393 48.6926 27.8321 48.5048 28.3336C48.4938 27.8638 48.1485 21.9016 48.1485 21.9016C47.9521 18.9051 45.2168 17.0909 43 17.0909L45.6658 33.3528C49.0709 33.3418 50.8936 31.0396 51.855 28.5947C51.855 28.5947 53.8937 23.307 53.9779 23.0667C53.9986 23.2961 55.4444 33.3528 55.4444 33.3528C58.8519 33.3528 60.6905 31.197 61.68 28.8399L66.4613 17.0909C63.094 17.0909 61.3212 19.3907 60.4062 21.8417ZM92.3186 16.7127C90.2239 16.7127 88.6097 17.851 87.2507 19.5334L87.2531 19.5212L88.461 9.75C85.6719 9.75 83.3929 12.1779 82.9598 15.7794L80.8382 33.2259C82.4474 33.2259 84.1518 32.7586 85.0716 31.5764C85.8952 32.6341 87.1189 33.4772 88.9306 33.4772C93.6339 33.4772 96.867 28.0103 96.867 22.8776C96.867 18.1939 94.5879 16.7127 92.3186 16.7127ZM91.8868 25.0944C91.3988 27.9639 89.8042 29.8988 88.2596 29.8988C86.7029 29.8988 86.0453 29.2108 86.0453 29.2108C86.3356 26.7024 86.5284 25.1639 87.0957 23.839C87.6618 22.514 89.0002 20.3997 90.4007 20.3997C91.7623 20.3997 92.3748 22.2261 91.8868 25.0944ZM108.657 17.0922H105.365L105.38 16.9201C105.605 14.7704 106.12 13.6419 107.786 13.4687C108.925 13.3516 109.439 12.7598 109.559 12.1205C109.653 11.6191 109.971 9.84637 109.971 9.84637C103.366 9.80857 101.296 12.6598 100.767 16.9934L100.755 17.0909L100.691 17.0934C99.6181 17.0934 98.4408 18.3074 98.2346 19.8494L98.1627 20.4167H100.359L98.5152 35.6782L97.9565 38.4208L98.1833 38.4281C101.266 38.311 103.25 35.8795 103.688 32.3389L105.128 20.4167H106.16C107.17 20.4167 108.357 19.4042 108.577 17.7119L108.657 17.0922ZM125.745 16.8092C121.951 16.8092 118.375 19.6018 117.275 23.9951C116.177 28.3873 117.847 33.5736 123.423 33.5736C129.002 33.5736 132.206 28.1676 132.206 23.6792C132.206 19.1882 129.171 16.8092 125.745 16.8092ZM127.284 24.9638C127.087 26.9561 126.209 29.966 123.808 29.966C121.397 29.966 121.739 26.434 121.973 24.7577C122.223 22.9605 123.233 20.4167 125.382 20.4167C127.323 20.4167 127.506 22.714 127.284 24.9638ZM150.944 21.8417C150.944 21.8417 149.038 27.8175 148.892 28.3189C148.839 27.8175 147.445 17.0837 147.445 17.0837C144.2 17.0837 142.464 19.3895 141.548 21.8393C141.548 21.8393 139.232 27.8321 139.044 28.3336C139.032 27.8638 138.687 21.9016 138.687 21.9016C138.491 18.9051 135.754 17.0909 133.538 17.0909L136.203 33.3528C139.608 33.3418 141.432 31.0396 142.394 28.5947C142.394 28.5947 144.432 23.307 144.516 23.0667C144.537 23.2961 145.982 33.3528 145.982 33.3528C149.39 33.3528 151.228 31.197 152.217 28.8399L157 17.0909C153.632 17.0909 151.859 19.3907 150.944 21.8417ZM111.756 9.84637L108.992 32.1437L108.984 32.1401L108.423 34.8974L108.649 34.9046C111.626 34.868 113.738 32.256 114.135 28.9618L115.732 16.1637C116.216 12.2657 113.893 9.84637 111.756 9.84637Z" fill="#00B6FF"/>
</svg>
